<?xml version="1.0" encoding="iso-8859-1"?>
<!-- Generator: Adobe Illustrator 19.1.1, SVG Export Plug-In . SVG Version: 6.00 Build 0)  -->
<svg version="1.1" id="Layer_1" xmlns="http://www.w3.org/2000/svg" xmlns:xlink="http://www.w3.org/1999/xlink" x="0px" y="0px"
	 viewBox="0 0 40 40" style="enable-background:new 0 0 40 40;" xml:space="preserve">
<g>
	<path style="fill:#FFFFFF;" d="M1.5,35.5v-31h37v29.978c0,0.563-0.458,1.022-1.022,1.022H1.5z"/>
	<g>
		<path style="fill:#788B9C;" d="M38,5v29.478C38,34.766,37.766,35,37.478,35H2V5H38 M39,4H1v32h36.478
			C38.319,36,39,35.319,39,34.478V4L39,4z"/>
	</g>
</g>
<rect x="6" y="9" style="fill:#B5DEFF;" width="28" height="17.875"/>
<rect x="6" y="19" style="fill:#D9F6FF;" width="28" height="8"/>
<rect x="6" y="27" style="fill:#7AADF0;" width="28" height="4"/>
<ellipse style="fill:#D9F6FF;" cx="14.75" cy="18.143" rx="3.5" ry="3.143"/>
<ellipse style="fill:#D9F6FF;" cx="11.25" cy="18.143" rx="2.625" ry="2.357"/>
<ellipse style="fill:#D9F6FF;" cx="20" cy="19.714" rx="3.5" ry="3.143"/>
<ellipse style="fill:#D9F6FF;" cx="25.25" cy="18.143" rx="3.5" ry="3.143"/>
<ellipse style="fill:#D9F6FF;" cx="32.25" cy="18.143" rx="1.75" ry="1.571"/>
<ellipse style="fill:#D9F6FF;" cx="7.75" cy="18.143" rx="1.75" ry="1.571"/>
<ellipse style="fill:#D9F6FF;" cx="28.75" cy="18.143" rx="2.625" ry="2.357"/>
<polygon style="fill:#4A6D9C;" points="6,27 34,27 34,25.384 25.25,20 "/>
<polygon style="fill:#5D84B8;" points="27,27 6,27 6,23 14.75,19 "/>
<g>
	<circle style="fill:#BAE0BD;" cx="31" cy="31" r="8.5"/>
	<g>
		<path style="fill:#5E9C76;" d="M31,23c4.411,0,8,3.589,8,8s-3.589,8-8,8s-8-3.589-8-8S26.589,23,31,23 M31,22
			c-4.971,0-9,4.029-9,9s4.029,9,9,9s9-4.029,9-9S35.971,22,31,22L31,22z"/>
	</g>
</g>
<line style="fill:none;stroke:#FFFFFF;stroke-width:2;stroke-miterlimit:10;" x1="31" y1="36" x2="31" y2="26"/>
<line style="fill:none;stroke:#FFFFFF;stroke-width:2;stroke-miterlimit:10;" x1="26" y1="31" x2="36" y2="31"/>
</svg>
