<?xml version="1.0" encoding="utf-8"?><svg version="1.1" id="Layer_1" xmlns="http://www.w3.org/2000/svg" xmlns:xlink="http://www.w3.org/1999/xlink" x="0px" y="0px" viewBox="0 0 123.45 123.45" style="enable-background:new 0 0 123.45 123.45" xml:space="preserve"><style type="text/css">.st0{fill-rule:evenodd;clip-rule:evenodd;stroke:#000000;stroke-width:0.5669;stroke-miterlimit:22.9256;}</style><g><path class="st0" d="M61.72,0.28c14.77,0,28.33,5.22,38.93,13.9L46.86,45.24V2.1C51.62,0.91,56.6,0.28,61.72,0.28L61.72,0.28z M105.99,19.12c10.63,11.05,17.17,26.06,17.17,42.6c0,3.02-0.22,5.98-0.64,8.89L69.66,40.09L105.99,19.12L105.99,19.12z M121.05,77.76c-4.9,18.16-17.91,32.99-34.91,40.36l0-60.51L121.05,77.76L121.05,77.76z M79.21,120.64 c-5.54,1.64-11.41,2.53-17.48,2.53c-13.75,0-26.44-4.52-36.67-12.14l54.16-31.27L79.21,120.64L79.21,120.64z M19.41,106.27 C7.63,95.07,0.28,79.26,0.28,61.72c0-3.03,0.22-6,0.65-8.92l54.51,32.65L19.41,106.27L19.41,106.27z M2.42,45.62 C7.58,26.57,21.67,11.21,39.91,4.27l-0.44,63.54L2.42,45.62L2.42,45.62z"/></g></svg>