<?xml version="1.0"?>
<svg xmlns="http://www.w3.org/2000/svg" width="50" height="50" viewBox="0 0 50 50">
    <path d="M 36.875 4.0625 C 36.547 4.0625 36.2505 4.19875 36.0625 4.46875 L 23.90625 22 C 23.82625 22.115 23.776 22.26825 23.75 22.40625 C 23.493 23.77525 23.9825 25.26775 25.1875 26.71875 C 27.1505 29.08475 30.6765 30.9375 33.1875 30.9375 C 33.4725 30.9375 33.745 30.88975 34 30.84375 C 34.302 30.78875 34.5435 30.61475 34.6875 30.34375 L 47.84375 5.53125 C 48.00775 5.22125 47.9935 4.83125 47.8125 4.53125 C 47.6325 4.23125 47.2885 4.0625 46.9375 4.0625 L 36.875 4.0625 z M 21.71875 23.71875 C 14.99875 25.25975 13.36625 30.6795 11.78125 35.9375 C 10.21625 41.1285 8.7345 46.0305 2.6875 48.0625 C 2.2235 48.2185 1.921 48.67325 2 49.15625 C 2.079 49.63925 2.51 50 3 50 C 22.549 50 32.46375 47.335 33.59375 32.875 C 33.44875 32.884 33.3355 32.9375 33.1875 32.9375 C 30.0995 32.9375 25.99325 30.817 23.65625 28 C 22.33525 26.409 21.83775 24.93075 21.71875 23.71875 z"/>
</svg>
