<svg xmlns="http://www.w3.org/2000/svg" shape-rendering="geometricPrecision" text-rendering="geometricPrecision" image-rendering="optimizeQuality" fill-rule="evenodd" clip-rule="evenodd" viewBox="0 0 510 512.43"><path fill-rule="nonzero" d="M176.32 46.06H46.06v127.83H0V0h176.32v46.06zm78.67 106.58c28.6 0 54.5 11.6 73.24 30.34 18.75 18.74 30.35 44.64 30.35 73.24 0 28.53-11.6 54.4-30.35 73.15v.09c-18.74 18.74-44.64 30.34-73.24 30.34-28.58 0-54.49-11.6-73.23-30.34v-.09c-18.74-18.75-30.34-44.62-30.34-73.15 0-28.6 11.6-54.5 30.34-73.24 18.74-18.74 44.64-30.34 73.23-30.34zm40.69 62.89c-10.4-10.39-24.79-16.84-40.69-16.84-15.88 0-30.27 6.45-40.67 16.84-10.4 10.4-16.85 24.8-16.85 40.69 0 15.92 6.43 30.32 16.8 40.72l.05-.04c10.4 10.4 24.79 16.84 40.67 16.84 15.9 0 30.29-6.44 40.69-16.84l.04.04c10.38-10.4 16.8-24.8 16.8-40.72 0-15.89-6.44-30.29-16.84-40.69zm37.99 250.84h130.27V338.54H510v173.89H333.67v-46.06zm0-466.37H510v173.89h-46.06V46.06H333.67V0zM176.32 512.43H0V338.54h46.06v127.83h130.26v46.06z"/></svg>