<?xml version="1.0"?>
<svg xmlns="http://www.w3.org/2000/svg" width="50" height="50" viewBox="0 0 50 50">
    <path d="M 42.46875 1 C 40.797375 1.00025 39.11825 1.63225 37.84375 2.90625 C 37.76875 2.98225 34.80675 5.94425 32.71875 8.03125 L 41.96875 17.28125 L 47.09375 12.125 C 49.63675 9.582 49.63775 5.45125 47.09375 2.90625 C 45.82275 1.63425 44.140125 0.99975 42.46875 1 z M 29.59375 8.65625 C 29.016625 8.656125 28.421 8.86025 28 9.28125 L 25.40625 11.90625 C 24.53825 12.77425 24.53825 14.1945 25.40625 15.0625 L 34.9375 24.59375 C 35.3585 25.01475 35.93625 25.25 36.53125 25.25 C 37.12625 25.25 37.67375 25.01475 38.09375 24.59375 L 40.71875 22 C 41.58675 21.132 41.58675 19.71375 40.71875 18.84375 L 31.15625 9.28125 C 30.73575 8.86075 30.170875 8.656375 29.59375 8.65625 z M 25.03125 17.5 C 20.41125 22.12 9.729 32.769 8.375 34.125 C 5.759 36.74 5.3515 37.9925 5.0625 39.4375 C 4.8695 40.4005 4.67125 41.2965 2.28125 43.6875 C 1.89025 44.0785 1.89025 44.70275 2.28125 45.09375 L 4.90625 47.71875 C 5.10125 47.91375 5.33775 48 5.59375 48 C 5.84975 48 6.1175 47.91375 6.3125 47.71875 C 8.7025 45.32875 9.5995 45.1305 10.5625 44.9375 C 12.0065 44.6485 13.258 44.242 15.875 41.625 L 32.5 24.96875 L 25.03125 17.5 z"/>
</svg>
