<svg fill="currentColor" viewBox="0 0 50 50">
    <path d="M 9 3 C 8.448 3 8 3.448 8 4 L 8 41 C 8 41.553 8.448 42 9 42 L 46 42 C 46.553 42 47 41.553 47 41 L 47 35 C 47 34.447 46.553 34 46 34 L 16 34 L 16 4 C 16 3.448 15.552 3 15 3 L 9 3 z M 4 8 C 3.448 8 3 8.448 3 9 L 3 15 C 3 15.552 3.448 16 4 16 L 6 16 L 6 8 L 4 8 z M 18 8 L 18 16 L 34 16 L 34 32 L 42 32 L 42 9 C 42 8.448 41.553 8 41 8 L 18 8 z M 34 44 L 34 46 C 34 46.553 34.447 47 35 47 L 41 47 C 41.553 47 42 46.553 42 46 L 42 44 L 34 44 z"/>
</svg>
