<svg xmlns="http://www.w3.org/2000/svg" shape-rendering="geometricPrecision" text-rendering="geometricPrecision" image-rendering="optimizeQuality" fill-rule="evenodd" clip-rule="evenodd" viewBox="0 0 512 512"><path d="M512 256c0-70.67-28.66-134.68-74.98-181.02C390.69 28.66 326.68 0 256 0S121.31 28.66 74.98 74.98C28.66 121.32 0 185.33 0 256c0 70.68 28.66 134.69 74.98 181.02C121.31 483.34 185.32 512 256 512c70.67 0 134.69-28.66 181.02-74.98C483.34 390.69 512 326.68 512 256zm-160.23-21.5h-43.38v-67.93c0-7.63-6.27-13.9-13.91-13.9H217.5c-7.62 0-13.9 6.25-13.9 13.9v67.92h-43.41c-16.71 0-25.11 19.9-14.05 31.96l96.01 112.05c7.54 9.12 21.31 9.12 29.04.37l94.96-112.8c10.83-12.43 1.66-31.55-14.38-31.57z"/></svg>