<?xml version="1.0"?>
<svg xmlns="http://www.w3.org/2000/svg" viewBox="0 0 50 50" enable-background="new 0 0 50 50">
    <path d="M 30.6875 2.5 C 30.3875 2.5 30.2 2.6125 30 2.8125 L 24.15625 8.625 L 24.125 8.59375 L 19.8125 12.90625 L 39.46875 32.5625 L 42.25 29.78125 L 42.3125 29.8125 L 49.6875 22.40625 C 49.8875 22.20625 50 21.9875 50 21.6875 L 30.6875 2.5 z M 18.59375 14.5 L 12.59375 27.90625 L 7.5 33 C 7.1 33.4 7.1 34.00625 7.5 34.40625 L 18 44.90625 C 18.2 45.10625 18.4875 45.1875 18.6875 45.1875 C 18.8875 45.1875 19.20625 45.10625 19.40625 44.90625 L 24.5 39.8125 L 37.90625 33.8125 L 18.59375 14.5 z M 6.6875 36.40625 L 0.3125 42.8125 C 0.1125 43.1125 -3.7007434e-17 43.5125 0 43.8125 C 0.1 44.1125 0.29375 44.4 0.59375 44.5 L 11.90625 48.90625 C 12.00625 48.90625 12.1125 49 12.3125 49 C 12.6125 49 12.8 48.8875 13 48.6875 L 16 45.6875 L 6.6875 36.40625 z"/>
</svg>
