<?xml version="1.0"?>
<svg xmlns="http://www.w3.org/2000/svg" width="50" height="50" viewBox="0 0 50 50">
    <path d="M 32.59375 4.03125 C 31.809125 4.03125 31.03875 4.2985 30.46875 4.875 L 3.875 31.75 C 2.705 32.933 2.704 34.8765 3.875 36.0625 L 13.4375 45.71875 C 13.6275 45.90975 13.88725 46 14.15625 46 L 17.1875 46 L 22.625 46 L 41 46 A 1.010601 1.010601 0 1 0 41 44 L 25.03125 44 L 34.5 34.4375 L 47.125 21.6875 C 48.296 20.5025 48.297 18.558 47.125 17.375 L 34.75 4.875 C 34.1785 4.2985 33.378375 4.03125 32.59375 4.03125 z M 18 20.375 L 32.3125 33.78125 L 22.21875 44 L 17.125 44 L 14.5625 44 L 5.3125 34.625 C 4.9165 34.224 4.9175 33.5865 5.3125 33.1875 L 18 20.375 z"/>
</svg>
