<?xml version="1.0"?>
<svg xmlns="http://www.w3.org/2000/svg" width="50" height="50" viewBox="0 0 50 50">
    <path d="M46.107,16.993L33.053,3.941c-1.033-1.178-3.107-1.201-4.26-0.048L3.941,28.747c-0.58,0.508-0.914,1.224-0.94,2.018 c-0.027,0.831,0.297,1.648,0.892,2.242l13.1,13.101C17.569,46.684,18.317,47,19.1,47s1.531-0.316,2.107-0.893L46.06,21.252 c0.579-0.507,0.913-1.224,0.939-2.017C47.026,18.404,46.701,17.587,46.107,16.993z M19.793,44.693c-0.401,0.402-0.984,0.402-1.386,0 l-13.1-13.101C5.103,31.389,4.991,31.11,5,30.831c0.004-0.136,0.044-0.391,0.307-0.624L17.85,17.664L32.336,32.15L19.793,44.693z"/>
</svg>
