<?xml version="1.0"?>
<svg xmlns="http://www.w3.org/2000/svg" width="50" height="50" viewBox="0 0 50 50">
    <path style="text-indent:0;text-align:start;line-height:normal;text-transform:none;block-progression:tb;-inkscape-font-specification:Bitstream Vera Sans" d="M 22.6875 3 C 22.4375 3 22.2 3.1125 22 3.3125 L 12.65625 12.5625 L 12.625 12.59375 L 11.3125 13.875 C 13.7285 15.747 19.251 17 26 17 C 27.657 17 29 18.343 29 20 C 29 21.657 27.657 23 26 23 C 24.660029 23 23.540957 22.11916 23.15625 20.90625 C 24.106855 20.955108 25.051795 21 26 21 C 26.553 21 27 20.552 27 20 C 27 19.448 26.553 19 26 19 C 17.696 19 8 17.0755 8 11.6875 C 8 9.2055 11.05075 7.30975 15.96875 6.46875 L 18.28125 4.15625 C 10.62025 4.82525 6 7.5895 6 11.6875 C 6 13.734115 6.9202754 15.406169 8.46875 16.71875 L 3.1875 22 C 2.3875 22.8 2 23.9 2 25 C 2 26.1 2.3875 27.2 3.1875 28 L 19 43.8125 C 19.8 44.6125 20.8 45 22 45 C 23.1 45 24.2 44.6125 25 43.8125 L 43 25.78125 C 43.964873 26.862948 45 28.301216 45 29.6875 C 45 31.920833 44 36.053086 44 39 C 44 40.645455 45.354545 42 47 42 C 48.645455 42 50 40.645455 50 39 L 50 28.3125 C 50 23.861218 46.447356 20.246043 42.5 17.46875 C 38.721087 14.809971 34.47643 12.893879 31.9375 11.84375 L 23.40625 3.3125 C 23.20625 3.1125 22.9375 3 22.6875 3 z M 36.03125 15.9375 C 37.779073 16.835093 39.651465 17.8811 41.375 19.09375 C 45.102644 21.716457 48 24.963782 48 28.3125 L 48 39 C 48 39.554545 47.554545 40 47 40 C 46.445455 40 46 39.554545 46 39 C 46 36.546914 47 32.454167 47 29.6875 C 47 26.837536 44.840392 24.715392 43.71875 23.59375 L 43.6875 23.59375 L 39.84375 19.75 L 36.03125 15.9375 z" overflow="visible" enable-background="accumulate" font-family="Bitstream Vera Sans"/>
</svg>
