<?xml version="1.0"?>
<svg xmlns="http://www.w3.org/2000/svg" width="50" height="50" viewBox="0 0 50 50">
    <path style="text-indent:0;text-align:start;line-height:normal;text-transform:none;block-progression:tb;-inkscape-font-specification:Bitstream Vera Sans" d="M 22.875 5 A 1.0001 1.0001 0 0 0 22.09375 5.5625 L 4.09375 42.5625 A 1.0001 1.0001 0 0 0 5 44 L 23 44 A 1.0001 1.0001 0 0 0 24 43 L 24 6 A 1.0001 1.0001 0 0 0 22.875 5 z M 27.125 5 C 27.014063 4.9872656 26.8955 5.00525 26.78125 5.03125 C 26.32725 5.13625 26 5.534 26 6 L 26 43 C 26 43.553 26.447 44 27 44 L 45 44 C 45.345 44 45.66075 43.82325 45.84375 43.53125 C 46.02675 43.23925 46.05625 42.8725 45.90625 42.5625 L 27.90625 5.5625 C 27.754 5.24825 27.457812 5.0382031 27.125 5 z M 22 10.34375 L 22 42 L 6.59375 42 L 22 10.34375 z" overflow="visible" enable-background="accumulate" font-family="Bitstream Vera Sans"/>
</svg>
