<?xml version="1.0"?>
<svg xmlns="http://www.w3.org/2000/svg" width="50" height="50" viewBox="0 0 50 50">
    <path style="text-indent:0;text-align:start;line-height:normal;text-transform:none;block-progression:tb;-inkscape-font-specification:Bitstream Vera Sans" d="M 43.0625 4 C 42.89575 3.991 42.718 4.01875 42.5625 4.09375 L 5.5625 22.09375 C 5.1435 22.29775 4.92725 22.76475 5.03125 23.21875 C 5.13625 23.67175 5.534 24 6 24 L 43 24 C 43.553 24 44 23.552 44 23 L 44 5 C 44 4.655 43.82325 4.33825 43.53125 4.15625 C 43.38575 4.06525 43.22925 4.009 43.0625 4 z M 5.8125 26 A 1.0001 1.0001 0 0 0 5.5625 27.90625 L 42.5625 45.90625 A 1.0001 1.0001 0 0 0 44 45 L 44 27 A 1.0001 1.0001 0 0 0 43 26 L 6 26 A 1.0001 1.0001 0 0 0 5.90625 26 A 1.0001 1.0001 0 0 0 5.8125 26 z M 10.34375 28 L 42 28 L 42 43.40625 L 10.34375 28 z" overflow="visible" enable-background="accumulate" font-family="Bitstream Vera Sans"/>
</svg>
