<?xml version="1.0"?>
<svg xmlns="http://www.w3.org/2000/svg" viewBox="0 0 50 50">
    <path style="line-height:normal;text-indent:0;text-align:start;text-decoration-line:none;text-decoration-style:solid;text-decoration-color:#000;text-transform:none;block-progression:tb;isolation:auto;mix-blend-mode:normal" d="M 4 8 L 4 30.572266 L 4 42 L 26 42 L 28 42 C 28.958 42 29 41 29 41 C 29 39.346 30.346 38 32 38 C 30.346 38 29 36.654 29 35 C 29 33.346 30.346 32 32 32 L 39.707031 32 C 40.098031 31.609 40.098031 30.976938 39.707031 30.585938 L 34.707031 25.292969 C 34.316031 24.901969 33.683969 24.901969 33.292969 25.292969 L 29.03125 29.554688 L 29.029297 29.552734 L 25.291016 33.291016 C 25.096016 33.486016 24.839984 33.583984 24.583984 33.583984 C 24.327984 33.583984 24.071953 33.486016 23.876953 33.291016 C 23.485953 32.900016 23.485953 32.267953 23.876953 31.876953 L 27.677734 28.076172 L 18.736328 18.324219 C 18.556328 18.128219 18.307969 18.011953 18.042969 18.001953 C 17.760969 17.987953 17.516312 18.085625 17.320312 18.265625 L 6 28.724609 L 6 10 L 44 10 L 44 27 A 1.0001 1.0001 0 1 0 46 27 L 46 8 L 4 8 z M 35 15 A 3 3 0 0 0 32 18 A 3 3 0 0 0 35 21 A 3 3 0 0 0 38 18 A 3 3 0 0 0 35 15 z M 44 33 A 2 2 0 0 0 42.271484 34 L 32 34 A 1.0001 1.0001 0 1 0 32 36 L 42.269531 36 A 2 2 0 0 0 44 37 A 2 2 0 0 0 45.728516 36 L 49 36 A 1.0001 1.0001 0 1 0 49 34 L 45.730469 34 A 2 2 0 0 0 44 33 z M 38 39 A 2 2 0 0 0 36.271484 40 L 32 40 A 1.0001 1.0001 0 1 0 32 42 L 36.269531 42 A 2 2 0 0 0 38 43 A 2 2 0 0 0 39.728516 42 L 49 42 A 1.0001 1.0001 0 1 0 49 40 L 39.730469 40 A 2 2 0 0 0 38 39 z M 44 45 A 2 2 0 0 0 42.271484 46 L 32 46 A 1.0001 1.0001 0 1 0 32 48 L 42.269531 48 A 2 2 0 0 0 44 49 A 2 2 0 0 0 45.728516 48 L 49 48 A 1.0001 1.0001 0 1 0 49 46 L 45.730469 46 A 2 2 0 0 0 44 45 z"/>
</svg>
