<svg xmlns="http://www.w3.org/2000/svg" shape-rendering="geometricPrecision" text-rendering="geometricPrecision" image-rendering="optimizeQuality" fill-rule="evenodd" clip-rule="evenodd" viewBox="0 0 512 379.51"><path d="M212.27 33.98C131.02 56.52 78.14 103.65 64.99 185.67c-3.58 22.32 1.42 5.46 16.55-5.86 49.4-36.96 146.53-23.88 160.01 60.56 27.12 149.48-159.79 175.36-215.11 92.8-12.87-19.19-21.39-41.59-24.46-66.19C-11.35 159.99 43.48 64.7 139.8 19.94c17.82-8.28 36.6-14.76 56.81-19.51 10.12-2.05 17.47 3.46 20.86 12.77 2.87 7.95 3.85 16.72-5.2 20.78zm267.78 0c-81.25 22.54-134.14 69.67-147.28 151.69-3.58 22.32 1.42 5.46 16.55-5.86 49.4-36.96 146.53-23.88 160 60.56 27.13 149.48-159.78 175.36-215.1 92.8-12.87-19.19-21.39-41.59-24.46-66.19C256.43 159.99 311.25 64.7 407.58 19.94 425.4 11.66 444.17 5.18 464.39.43c10.12-2.05 17.47 3.46 20.86 12.77 2.87 7.95 3.85 16.72-5.2 20.78z"/></svg>