<svg xmlns="http://www.w3.org/2000/svg" shape-rendering="geometricPrecision" text-rendering="geometricPrecision" image-rendering="optimizeQuality" fill-rule="evenodd" clip-rule="evenodd" viewBox="0 0 512 379.51"><path d="M299.73 345.54c81.25-22.55 134.13-69.68 147.28-151.7 3.58-22.31-1.42-5.46-16.55 5.86-49.4 36.97-146.53 23.88-160.01-60.55C243.33-10.34 430.24-36.22 485.56 46.34c12.87 19.19 21.39 41.59 24.46 66.19 13.33 106.99-41.5 202.28-137.82 247.04-17.82 8.28-36.6 14.76-56.81 19.52-10.12 2.04-17.47-3.46-20.86-12.78-2.87-7.95-3.85-16.72 5.2-20.77zm-267.78 0c81.25-22.55 134.14-69.68 147.28-151.7 3.58-22.31-1.42-5.46-16.55 5.86-49.4 36.97-146.53 23.88-160-60.55-27.14-149.49 159.78-175.37 215.1-92.81 12.87 19.19 21.39 41.59 24.46 66.19 13.33 106.99-41.5 202.28-137.82 247.04-17.82 8.28-36.59 14.76-56.81 19.52-10.12 2.04-17.47-3.46-20.86-12.78-2.87-7.95-3.85-16.72 5.2-20.77z"/></svg>