<?xml version="1.0"?>
<svg fill="currentColor">
    <path style="line-height:normal;text-indent:0;text-align:start;text-decoration-line:none;text-decoration-style:solid;text-decoration-color:#000;text-transform:none;block-progression:tb;isolation:auto;mix-blend-mode:normal" d="M 25 3.2441406 L 18.59375 9.578125 A 2.0002 2.0002 0 1 0 21.40625 12.421875 L 23 10.845703 L 23 18 A 2.0002 2.0002 0 1 0 27 18 L 27 10.845703 L 28.59375 12.421875 A 2.0002 2.0002 0 1 0 31.40625 9.578125 L 25 3.2441406 z M 39.017578 18.007812 A 2.0002 2.0002 0 0 0 37.605469 21.433594 L 39.181641 23.027344 L 32.027344 23.027344 A 2.0002 2.0002 0 1 0 32.027344 27.027344 L 39.181641 27.027344 L 37.605469 28.621094 A 2.0002 2.0002 0 1 0 40.449219 31.433594 L 46.785156 25.027344 L 40.449219 18.621094 A 2.0002 2.0002 0 0 0 39.017578 18.007812 z M 10.921875 18.009766 A 2.0002 2.0002 0 0 0 9.5488281 18.621094 L 3.2167969 25.027344 L 9.5488281 31.433594 A 2.0005113 2.0005113 0 1 0 12.394531 28.621094 L 10.818359 27.027344 L 17.970703 27.027344 A 2.0002 2.0002 0 1 0 17.970703 23.027344 L 10.818359 23.027344 L 12.394531 21.433594 A 2.0002 2.0002 0 0 0 10.921875 18.009766 z M 24.970703 30.029297 A 2.0002 2.0002 0 0 0 23 32.056641 L 23 39.210938 L 21.40625 37.634766 A 2.0002 2.0002 0 0 0 19.966797 37.037109 A 2.0002 2.0002 0 0 0 18.59375 40.478516 L 23.414062 45.244141 A 2.0002 2.0002 0 0 0 23.798828 45.625 L 25 46.8125 L 26.199219 45.626953 A 2.0002 2.0002 0 0 0 26.59375 45.236328 L 31.40625 40.478516 A 2.0002 2.0002 0 0 0 29.990234 37.029297 A 2.0002 2.0002 0 0 0 28.59375 37.634766 L 27 39.210938 L 27 32.056641 A 2.0002 2.0002 0 0 0 24.970703 30.029297 z"/>
</svg>
