<?xml version="1.0" encoding="utf-8"?><svg version="1.1" id="Layer_1" xmlns="http://www.w3.org/2000/svg" xmlns:xlink="http://www.w3.org/1999/xlink" x="0px" y="0px" viewBox="0 0 122.88 121.73" style="enable-background:new 0 0 122.88 121.73" xml:space="preserve"><style type="text/css">.st0{fill-rule:evenodd;clip-rule:evenodd;}</style><g><path class="st0" d="M1.7,95.33h7.26V26.41H1.49C0.67,26.41,0,25.74,0,24.92V1.49C0,0.67,0.67,0,1.49,0h24.17 c0.82,0,1.49,0.67,1.49,1.49v6.77h68.57V1.49c0-0.82,0.67-1.49,1.49-1.49h24.17c0.82,0,1.49,0.67,1.49,1.49v23.42 c0,0.82-0.67,1.49-1.49,1.49h-7.13v68.92h7.13c0.82,0,1.49,0.67,1.49,1.49v23.42c0,0.82-0.67,1.49-1.49,1.49H97.22 c-0.82,0-1.49-0.67-1.49-1.49v-5.52H27.37v5.52c0,0.82-0.67,1.49-1.49,1.49H1.7c-0.82,0-1.49-0.67-1.49-1.49V96.82 C0.21,96,0.88,95.33,1.7,95.33L1.7,95.33z M18.03,95.33h7.84c0.82,0,1.49,0.67,1.49,1.49v8.84h68.36v-8.84 c0-0.82,0.67-1.49,1.49-1.49h7.97V26.41h-7.97c-0.82,0-1.49-0.67-1.49-1.49v-7.59H27.16v7.59c0,0.82-0.67,1.49-1.49,1.49h-7.63 V95.33L18.03,95.33z"/></g></svg>