<?xml version="1.0"?>
<svg xmlns="http://www.w3.org/2000/svg" width="50" height="50" viewBox="0 0 50 50">
    <path d="M26.3,0C15.551,0,3,6.207,3,23.7C3,36.401,12.805,50,27.4,50c0.006,0,0.211,0,0.218,0C33.1,49.9,39,46.354,39,38.8 c0-1.445-0.537-2.697-1.011-3.802c-0.125-0.291-0.248-0.576-0.359-0.867c-1.081-2.718,0.111-3.714,2.911-5.706 c3.172-2.258,7.517-5.35,7.459-13.525C48,10.039,42.695,0,26.3,0z M26.5,6c1.934,0,3.5,2.015,3.5,4.5S28.434,15,26.5,15 c-1.933,0-3.5-2.015-3.5-4.5S24.567,6,26.5,6z M14.5,33c-1.933,0-3.5-2.015-3.5-4.5s1.567-4.5,3.5-4.5s3.5,2.015,3.5,4.5 S16.433,33,14.5,33z M15.5,20c-1.933,0-3.5-2.015-3.5-4.5s1.567-4.5,3.5-4.5s3.5,2.015,3.5,4.5S17.433,20,15.5,20z M27,43 c-2.243,0-4-1.757-4-4s1.757-4,4-4s4,1.757,4,4S29.243,43,27,43z M37.5,20c-1.934,0-3.5-2.015-3.5-4.5s1.566-4.5,3.5-4.5 s3.5,2.015,3.5,4.5S39.434,20,37.5,20z"/>
</svg>
