<?xml version="1.0"?>
<svg xmlns="http://www.w3.org/2000/svg" width="50" height="50" viewBox="0 0 50 50">
    <path d="M 33.84375 1.4375 L 28.71875 9.125 L 40.875 21.28125 L 48.5625 16.15625 L 33.84375 1.4375 z M 28.1875 11.4375 C 24.7115 14.0595 20.483 15 13 15 L 12.1875 15 L 12.03125 15.8125 C 10.17625 25.0915 3.869 43.32875 3.125 45.46875 L 21.28125 27.28125 C 21.33325 27.22925 21.40975 27.2255 21.46875 27.1875 C 21.29275 26.8255 21.1875 26.39775 21.1875 25.96875 C 21.1875 24.45175 22.4205 23.25 23.9375 23.25 C 25.4545 23.25 26.6875 24.45175 26.6875 25.96875 C 26.6875 27.48675 25.4555 28.71875 23.9375 28.71875 C 23.5495 28.71875 23.17775 28.646 22.84375 28.5 C 22.80175 28.57 22.77875 28.65875 22.71875 28.71875 L 4.53125 46.875 C 6.66425 46.134 24.9075 39.82475 34.1875 37.96875 L 35 37.8125 L 35 37 C 35 29.517 35.9395 25.2885 38.5625 21.8125 L 28.1875 11.4375 z"/>
</svg>
