<?xml version="1.0"?>
<svg xmlns="http://www.w3.org/2000/svg" viewBox="0 0 50 50">
    <path d="M 35.8125 2 C 35.5625 2 35.29375 2.1125 35.09375 2.3125 L 9.09375 28.3125 C 8.99375 28.4125 8.90625 28.4875 8.90625 28.6875 L 2.09375 46.6875 C 1.89375 46.9875 2.0125 47.3875 2.3125 47.6875 C 2.5125 47.8875 2.7 48 3 48 C 3.1 48 3.20625 48.00625 3.40625 47.90625 L 21.40625 41.09375 C 21.50625 40.99375 21.7125 41.00625 21.8125 40.90625 L 23.40625 39.3125 L 47.6875 15 C 47.8875 14.7 48 14.4875 48 14.1875 C 48 13.8875 47.8875 13.7 47.6875 13.5 L 36.5 2.3125 C 36.3 2.1125 36.0625 2 35.8125 2 z M 11.09375 29.1875 C 11.59375 30.1875 11.4 31.2875 11 32.1875 C 10.8 32.5875 11.00625 33.1125 11.40625 33.3125 C 11.80625 33.6125 12.29375 33.5125 12.59375 33.3125 C 13.29375 32.8125 15.89375 31.60625 17.09375 32.90625 C 18.29375 34.10625 17.3125 36.60625 16.8125 37.40625 C 16.5125 37.70625 16.5125 38.19375 16.8125 38.59375 C 17.1125 38.89375 17.50625 39.1 17.90625 39 C 19.20625 38.6 20.20625 38.8 20.90625 39 L 20.5 39.40625 L 9.375 43.5625 L 6.5 40.59375 L 10.6875 29.59375 L 11.09375 29.1875 z"/>
</svg>
