<svg xmlns="http://www.w3.org/2000/svg" shape-rendering="geometricPrecision" text-rendering="geometricPrecision" image-rendering="optimizeQuality" fill-rule="evenodd" clip-rule="evenodd" viewBox="0 0 439 512.51"><path fill-rule="nonzero" d="M0 111.57c0-29.52 8.91-56.91 28.98-78.93l.03.03C38.74 21.93 49.78 13.8 62.13 8.32c25.01-11.1 55.83-11.11 80.82.07 12.38 5.54 23.43 13.77 33.11 24.67 20.04 22.5 28.51 50.29 28.51 80.1v22.34c0 29.1-8.85 56.15-28.3 78.09l-.07.06c-19.29 21.6-44.16 32.75-73.12 32.75-28.95 0-54.29-10.9-73.93-32.21v-.07C8.52 191.6 0 163.77 0 133.59v-22.02zm53.22 24.03c0 8.88 1.22 16.92 3.63 24.04 4.28 12.62 13.19 24.65 25.61 30.15 5.89 2.61 12.76 3.92 20.62 3.92 7.39 0 13.9-1.26 19.49-3.76 12.4-5.63 20.98-17.5 25.12-30.2 2.43-7.48 3.66-16.06 3.66-25.74v-22.54c0-9.37-1.21-17.68-3.63-24.91-4.19-12.53-13.2-24.58-25.48-30.06-11.38-5.06-27.91-5.08-39.29 0-12.71 5.67-21.63 17.59-25.9 30.58-2.55 7.71-3.83 16.59-3.83 26.61v21.91zm181.21 241.62c0-15.29 2.36-29.54 7.1-42.73 9.33-25.91 29.32-49.04 54.72-60.23 24.86-10.95 55.82-10.9 80.69 0 25.96 11.38 45.7 34.37 54.98 60.93 4.71 13.46 7.08 28.2 7.08 44.15v22.02c0 15.28-2.39 29.54-7.14 42.71-9.38 25.99-29.23 48.98-54.69 60.25-24.79 10.98-55.46 10.86-80.29.01-25.82-11.27-45.92-34.13-55.33-60.52-4.76-13.35-7.12-28.01-7.12-43.94v-22.65zm53.22 24.24c0 9.26 1.21 17.5 3.62 24.68 4.24 12.65 13.02 24.36 25.46 29.81 11.6 5.08 28.85 5.21 40.44.03 12.33-5.52 20.91-17.71 24.96-30.26 2.42-7.49 3.64-16.12 3.64-25.85v-22.75c0-9.87-1.22-18.53-3.64-25.94-4.12-12.63-12.34-23.4-24.8-28.63v-.07c-11.78-4.96-29.47-4.98-41.22.08-12.46 5.36-20.8 16.68-24.85 29.35-2.4 7.52-3.61 16.35-3.61 26.48v23.07zM103.24 456.2l-27.98-19.44L314.88 53.1l43.57 30.26-239.62 383.66-15.59-10.82z"/></svg>