<?xml version="1.0" encoding="utf-8"?><svg version="1.1" id="Layer_1" xmlns="http://www.w3.org/2000/svg" xmlns:xlink="http://www.w3.org/1999/xlink" x="0px" y="0px" viewBox="0 0 121.78 122.88" style="enable-background:new 0 0 121.78 122.88" xml:space="preserve"><style type="text/css">.st0{fill-rule:evenodd;clip-rule:evenodd;}</style><g><path class="st0" d="M30.06,0h61.65c3.43,0,6.23,2.81,6.23,6.23v6.47H23.83V6.23C23.83,2.8,26.63,0,30.06,0L30.06,0z M11.23,38.38 h99.32c6.18,0,11.23,5.05,11.23,11.23v62.04c0,6.18-5.05,11.23-11.23,11.23H11.23C5.05,122.88,0,117.83,0,111.65V49.61 C0,43.43,5.05,38.38,11.23,38.38L11.23,38.38z M54.11,58.38L81.4,77.41c0.45,0.29,0.86,0.67,1.18,1.13 c1.28,1.85,0.81,4.39-1.04,5.67L54.37,103c-0.7,0.58-1.6,0.92-2.59,0.92c-2.26,0-4.09-1.83-4.09-4.09V61.72h0.02 c0-0.81,0.24-1.62,0.73-2.33C49.73,57.54,52.27,57.09,54.11,58.38L54.11,58.38z M18.14,18.81h85.49c3.43,0,6.23,2.81,6.23,6.23 v6.72H11.91v-6.72C11.91,21.61,14.71,18.81,18.14,18.81L18.14,18.81z"/></g></svg>