<?xml version="1.0"?>
<svg xmlns="http://www.w3.org/2000/svg" width="50" height="50" viewBox="0 0 50 50">
    <path d="M 11 6 C 9.896 6 9 6.896 9 8 L 9 17 L 18 17 C 19.104 17 20 16.104 20 15 C 20 13.896 19.104 13 18 13 L 16.03125 13 C 18.60525 11.077 21.741 10 25 10 C 33.265 10 39.988 16.70775 40 24.96875 C 39.994 25.74875 39.96225 27.30325 39.90625 27.78125 C 39.77825 28.87825 40.55825 29.873 41.65625 30 C 41.73425 30.01 41.798 30 41.875 30 C 42.876 30 43.757 29.23775 43.875 28.21875 C 43.964 27.45175 43.994 25.706 44 25 C 44.001 24.993 44 24.97575 44 24.96875 C 44 24.90775 44 24.8545 44 24.8125 C 44 24.7475 43.97575 24.688 43.96875 24.625 C 43.76575 14.324 35.35 6 25 6 C 20.601 6 16.37 7.5645 13 10.3125 L 13 8 C 13 6.896 12.104 6 11 6 z M 7.9375 24.53125 C 6.8335 24.57325 5.957 25.55225 6 26.65625 C 6.042 27.73325 6.931 28.59375 8 28.59375 C 8.026 28.59275 8.06775 28.5645 8.09375 28.5625 C 9.19775 28.5205 10.042 27.604 10 26.5 L 10 26.4375 C 9.958 25.3335 9.0115 24.47925 7.9375 24.53125 z M 8.96875 30.3125 C 8.8368125 30.328324 8.6935 30.362875 8.5625 30.40625 C 7.5155 30.75825 6.9615 31.8895 7.3125 32.9375 L 7.53125 33.4375 C 7.87825 34.1455 8.5735 34.5625 9.3125 34.5625 C 9.6075 34.5625 9.9045 34.48275 10.1875 34.34375 C 11.1805 33.85775 11.58075 32.6795 11.09375 31.6875 C 10.78575 30.771375 9.8923125 30.20173 8.96875 30.3125 z M 40.40625 31.3125 C 39.635719 31.328344 38.932 31.80725 38.59375 32.5625 C 38.23675 33.3605 38.038 33.63025 37.5 34.28125 C 36.796 35.13325 36.998 36.42275 37.875 37.09375 C 38.237 37.37075 38.67075 37.5 39.09375 37.5 C 39.69675 37.5 40.2485 37.19475 40.6875 36.71875 C 41.3595 35.98975 41.80425 35.1555 42.28125 34.0625 C 42.72225 33.0505 42.2105 31.88375 41.1875 31.46875 C 40.93175 31.365 40.663094 31.307219 40.40625 31.3125 z M 12.65625 35.90625 C 12.273996 35.954408 11.905375 36.13325 11.59375 36.40625 C 10.76275 37.13525 10.62525 38.43875 11.40625 39.21875 L 11.75 39.625 C 12.13 39.958 12.5945 40.125 13.0625 40.125 C 13.6185 40.125 14.1665 39.8895 14.5625 39.4375 C 15.2905 38.6075 15.23625 37.32175 14.40625 36.59375 C 13.951875 36.075625 13.29334 35.825986 12.65625 35.90625 z M 34.4375 38.09375 C 34.053295 38.116326 33.6745 38.249875 33.34375 38.5 C 32.76875 38.935 32.48475 39.08925 31.46875 39.53125 C 30.45575 39.97125 29.92875 41.102 30.34375 42.125 C 30.65875 42.902 31.42775 43.375 32.21875 43.375 C 32.46875 43.375 32.71875 43.30775 32.96875 43.21875 C 33.92675 42.87475 34.71425 42.4235 35.78125 41.6875 C 36.69025 41.0605 36.82725 39.753 36.15625 38.875 C 35.738125 38.32625 35.077842 38.056123 34.4375 38.09375 z M 18.5 39.6875 C 17.718219 39.651687 16.959 40.038 16.59375 40.78125 C 16.10675 41.77225 16.509 42.98075 17.5 43.46875 C 17.5 43.46875 17.9525 43.61925 18.0625 43.65625 C 18.2735 43.72625 18.4765 43.78125 18.6875 43.78125 C 19.5235 43.78125 20.31375 43.24325 20.59375 42.40625 C 20.94475 41.35925 20.32925 40.225 19.28125 39.875 C 19.027 39.76775 18.760594 39.699438 18.5 39.6875 z M 25 41 C 23.896 41 23 41.896 23 43 C 23 44.104 23.896 45 25 45 C 25.137 45 25.17975 44.995 25.21875 45 C 25.35675 45.017 25.495 45.03125 25.625 45.03125 C 25.797 45.03125 25.972 45.032 26.25 45 C 27.347 44.87 28.129 43.847 28 42.75 C 27.87 41.653 26.87625 40.866 25.78125 41 C 25.72325 41.007 25.69425 41.02825 25.65625 41.03125 C 25.53725 41.01725 25.352 41 25 41 z"/>
</svg>
