<?xml version="1.0"?>
<svg xmlns="http://www.w3.org/2000/svg" width="50" height="50" viewBox="0 0 50 50">
    <path d="M 25.21875 6 C 14.86875 6 6.453 14.324 6.25 24.625 C 6.244 24.688 6.21875 24.7485 6.21875 24.8125 C 6.21875 24.8545 6.21775 24.90775 6.21875 24.96875 C 6.21875 24.97475 6.21875 24.993 6.21875 25 C 6.22475 25.706 6.25575 27.45175 6.34375 28.21875 C 6.46275 29.23775 7.34275 30 8.34375 30 C 8.42075 29.999 8.4845 29.97875 8.5625 29.96875 C 9.6595 29.84175 10.47175 28.87825 10.34375 27.78125 C 10.28775 27.30325 10.22375 25.74875 10.21875 24.96875 C 10.23075 16.70875 16.95475 10 25.21875 10 C 28.47775 10 31.64475 11.077 34.21875 13 L 32.21875 13 C 31.11475 13 30.21875 13.896 30.21875 15 C 30.21875 16.105 31.11475 17 32.21875 17 L 41.21875 17 L 41.21875 8 C 41.21875 6.896 40.32275 6 39.21875 6 C 38.11475 6 37.21875 6.896 37.21875 8 L 37.21875 10.3125 C 33.84775 7.5645 29.61775 6 25.21875 6 z M 42.28125 24.53125 C 41.20725 24.47925 40.26075 25.3335 40.21875 26.4375 L 40.21875 26.5 C 40.17575 27.604 41.05125 28.5205 42.15625 28.5625 C 42.18125 28.5645 42.19275 28.5625 42.21875 28.5625 C 43.28675 28.5625 44.17675 27.73325 44.21875 26.65625 C 44.26075 25.55225 43.38525 24.57325 42.28125 24.53125 z M 40.875 30.3125 C 40.097625 30.372828 39.38825 30.90225 39.125 31.6875 C 38.638 32.6795 39.04025 33.85675 40.03125 34.34375 C 40.31425 34.48275 40.61025 34.5625 40.90625 34.5625 C 41.64525 34.5625 42.37075 34.1455 42.71875 33.4375 L 42.90625 32.9375 C 43.25725 31.8895 42.70325 30.75825 41.65625 30.40625 C 41.394 30.31925 41.134125 30.292391 40.875 30.3125 z M 9.8125 31.3125 C 9.5556563 31.307219 9.287 31.365 9.03125 31.46875 C 8.00825 31.88375 7.4955 33.0515 7.9375 34.0625 C 8.4155 35.1555 8.8905 35.98875 9.5625 36.71875 C 10.0005 37.19575 10.55325 37.5 11.15625 37.5 C 11.57925 37.5 12.013 37.37075 12.375 37.09375 C 13.252 36.42275 13.454 35.13325 12.75 34.28125 C 12.211 33.63225 12.01325 33.3605 11.65625 32.5625 C 11.318 31.80725 10.583031 31.328344 9.8125 31.3125 z M 37.1875 35.90625 C 36.677 35.939875 36.1765 36.17875 35.8125 36.59375 C 34.9825 37.32275 34.92825 38.6075 35.65625 39.4375 C 36.05225 39.8885 36.59925 40.125 37.15625 40.125 C 37.62425 40.125 38.08975 39.958 38.46875 39.625 L 38.84375 39.21875 C 39.62475 38.43875 39.48725 37.13425 38.65625 36.40625 C 38.24125 36.04175 37.698 35.872625 37.1875 35.90625 z M 15.40625 38.09375 C 14.899625 38.161125 14.3975 38.436 14.0625 38.875 C 13.3915 39.753 13.5285 41.0605 14.4375 41.6875 C 15.5045 42.4225 16.292 42.87475 17.25 43.21875 C 17.5 43.30875 17.75 43.375 18 43.375 C 18.791 43.375 19.56 42.902 19.875 42.125 C 20.291 41.102 19.79325 39.97125 18.78125 39.53125 C 17.76525 39.09025 17.451 38.935 16.875 38.5 C 16.4335 38.1665 15.912875 38.026375 15.40625 38.09375 z M 31.71875 39.6875 C 31.458063 39.699438 31.19175 39.76775 30.9375 39.875 C 29.8895 40.226 29.274 41.35925 29.625 42.40625 C 29.905 43.24325 30.69525 43.78125 31.53125 43.78125 C 31.74225 43.78125 31.94525 43.72625 32.15625 43.65625 C 32.26725 43.61925 32.71875 43.46875 32.71875 43.46875 C 33.70975 42.98175 34.112 41.77225 33.625 40.78125 C 33.25975 40.038 32.500812 39.651687 31.71875 39.6875 z M 24.03125 41 C 23.101918 41.074334 22.3325 41.790125 22.21875 42.75 C 22.08875 43.847 22.87175 44.87 23.96875 45 C 24.24575 45.032 24.452 45.03125 24.625 45.03125 C 24.755 45.03125 24.862 45.016 25 45 C 25.039 44.995 25.08075 45 25.21875 45 C 26.32275 45 27.21875 44.104 27.21875 43 C 27.21875 41.896 26.32275 41 25.21875 41 C 24.87475 41 24.72075 41.01725 24.59375 41.03125 C 24.55675 41.02825 24.4965 41.007 24.4375 41 C 24.29975 40.98275 24.164012 40.989381 24.03125 41 z"/>
</svg>
