<?xml version="1.0" encoding="utf-8"?><svg version="1.1" id="Layer_1" xmlns="http://www.w3.org/2000/svg" xmlns:xlink="http://www.w3.org/1999/xlink" x="0px" y="0px" viewBox="0 0 121.65 122.88" style="enable-background:new 0 0 121.65 122.88" xml:space="preserve"><g><path d="M1.96,0.28L1.91,0.3L1.88,0.32c-0.07,0.03-0.13,0.06-0.19,0.1L1.67,0.43L1.61,0.46L1.58,0.48C1.55,0.5,1.52,0.52,1.49,0.54 l0,0L1.45,0.57L1.44,0.57L1.41,0.59L1.38,0.61L1.34,0.64L1.29,0.68l-0.01,0C0.73,1.11,0.33,1.69,0.14,2.36 C0.03,2.7-0.01,3.07,0,3.43v2.05c0.02,2.55,2.78,4.12,4.98,2.8c0.67-0.41,1.15-1.02,1.4-1.73h3.46c2.55-0.02,4.12-2.78,2.8-4.98 C12.03,0.59,11,0.01,9.84,0H3.42C2.94-0.02,2.44,0.07,1.96,0.28L1.96,0.28z M101.11,122.86c0.09,0.02,0.19,0.02,0.29,0 c0.03-0.02,0.07-0.04,0.1-0.05l9.76-5.63c0.09-0.06,0.15-0.16,0.18-0.26c0.02-0.08,0.02-0.16-0.01-0.21l-10.7-18.65l0,0 c-0.09-0.16-0.15-0.33-0.19-0.51c-0.19-0.94,0.41-1.85,1.35-2.04l15.7-3.25c0.02-0.01,0.04-0.01,0.06-0.01 c1.35-0.28,2.5-0.76,3.26-1.36c0.37-0.29,0.62-0.59,0.72-0.87c0.06-0.18,0.03-0.39-0.09-0.63c-0.22-0.41-0.66-0.87-1.39-1.36 L66.79,51.49l4.95,64.46c0.07,0.88,0.24,1.49,0.48,1.88c0.14,0.23,0.31,0.35,0.5,0.39c0.29,0.06,0.67-0.01,1.11-0.18 c0.9-0.36,1.88-1.12,2.81-2.15l10.71-12.02l0,0c0.12-0.13,0.26-0.25,0.43-0.35c0.83-0.48,1.89-0.2,2.37,0.63l10.8,18.59 C100.97,122.8,101.03,122.84,101.11,122.86L101.11,122.86L101.11,122.86z M1.61,0.46C1.57,0.49,1.53,0.51,1.49,0.54L1.61,0.46 L1.61,0.46z M6.56,18.59c-0.02-2.55-2.78-4.12-4.98-2.8C0.59,16.4,0.01,17.43,0,18.59v6.55c0.02,2.55,2.78,4.12,4.98,2.8 c0.99-0.61,1.57-1.64,1.58-2.8V18.59L6.56,18.59z M6.56,38.26c-0.02-2.55-2.78-4.12-4.98-2.8C0.59,36.06,0.01,37.1,0,38.26v6.55 c0.02,2.55,2.78,4.12,4.98,2.8c0.99-0.61,1.57-1.64,1.58-2.8V38.26L6.56,38.26z M6.56,57.92c-0.02-2.55-2.78-4.12-4.98-2.8 c-0.99,0.61-1.57,1.64-1.58,2.8v6.56c0.02,2.55,2.78,4.12,4.98,2.8c0.99-0.61,1.57-1.64,1.58-2.8V57.92L6.56,57.92z M6.56,77.59 c-0.02-2.55-2.78-4.12-4.98-2.8c-0.99,0.61-1.57,1.64-1.58,2.8v6.55c0.02,2.55,2.78,4.12,4.98,2.8c0.99-0.61,1.57-1.64,1.58-2.8 V77.59L6.56,77.59z M6.56,97.25c-0.02-2.55-2.78-4.12-4.98-2.8c-0.99,0.61-1.57,1.64-1.58,2.8v6.56c0.02,2.55,2.78,4.12,4.98,2.8 c0.99-0.61,1.57-1.64,1.58-2.8V97.25L6.56,97.25z M13.13,103.79c-2.55,0.02-4.12,2.78-2.8,4.98c0.61,0.99,1.64,1.57,2.8,1.58h6.55 c2.55-0.02,4.12-2.78,2.8-4.98c-0.61-0.99-1.64-1.57-2.8-1.58H13.13L13.13,103.79z M32.79,103.79c-2.55,0.02-4.12,2.78-2.8,4.98 c0.61,0.99,1.64,1.57,2.8,1.58h6.56c2.55-0.02,4.12-2.78,2.8-4.98c-0.61-0.99-1.64-1.57-2.8-1.58H32.79L32.79,103.79z M52.46,103.79c-2.55,0.02-4.12,2.78-2.8,4.98c0.61,0.99,1.64,1.57,2.8,1.58h6.56c2.55-0.02,4.12-2.78,2.8-4.98 c-0.61-0.99-1.64-1.57-2.8-1.58H52.46L52.46,103.79z M103.79,63.36c0.02,2.55,2.78,4.12,4.98,2.8c0.99-0.61,1.57-1.64,1.58-2.8 v-6.56c-0.02-2.55-2.78-4.12-4.98-2.8c-0.99,0.61-1.57,1.64-1.58,2.8V63.36L103.79,63.36z M103.79,43.7 c0.02,2.55,2.78,4.12,4.98,2.8c0.99-0.61,1.57-1.64,1.58-2.8v-6.56c-0.02-2.55-2.78-4.12-4.98-2.8c-0.99,0.61-1.57,1.64-1.58,2.8 V43.7L103.79,43.7z M103.79,24.03c0.02,2.55,2.78,4.12,4.98,2.8c0.99-0.61,1.57-1.64,1.58-2.8v-6.55c-0.02-2.55-2.78-4.12-4.98-2.8 c-0.99,0.61-1.57,1.64-1.58,2.8V24.03L103.79,24.03z M104.63,6.56c0.99,1.1,2.69,1.49,4.14,0.61c0.99-0.61,1.57-1.64,1.58-2.8V3.42 c0.03-0.61-0.12-1.25-0.47-1.84c-0.61-0.99-1.64-1.57-2.8-1.58h-5.47c-2.55,0.02-4.12,2.78-2.8,4.98c0.61,0.99,1.64,1.57,2.8,1.58 H104.63L104.63,6.56z M88.5,6.56c2.55-0.02,4.12-2.78,2.8-4.98C90.69,0.59,89.66,0.01,88.5,0h-6.55c-2.55,0.02-4.12,2.78-2.8,4.98 c0.61,0.99,1.64,1.57,2.8,1.58H88.5L88.5,6.56z M68.83,6.56c2.55-0.02,4.12-2.78,2.8-4.98c-0.61-0.99-1.64-1.57-2.8-1.58h-6.56 c-2.55,0.02-4.12,2.78-2.8,4.98c0.61,0.99,1.64,1.57,2.8,1.58H68.83L68.83,6.56z M49.17,6.56c2.55-0.02,4.12-2.78,2.8-4.98 c-0.61-0.99-1.64-1.57-2.8-1.58h-6.56c-2.55,0.02-4.12,2.78-2.8,4.98c0.61,0.99,1.64,1.57,2.8,1.58H49.17L49.17,6.56z M29.5,6.56 c2.55-0.02,4.12-2.78,2.8-4.98C31.7,0.59,30.66,0.01,29.5,0h-6.55c-2.55,0.02-4.12,2.78-2.8,4.98c0.61,0.99,1.64,1.57,2.8,1.58 H29.5L29.5,6.56z"/></g></svg>