<?xml version="1.0"?>
<svg xmlns="http://www.w3.org/2000/svg" version="1" width="24" height="24" viewBox="0 0 24 24">
    <path d="M 20 0 C 17.790861 0 16 1.790861 16 4 C 16 4.2761424 16.040466 4.5521096 16.09375 4.8125 L 7 9.375 C 6.2667372 8.5350231 5.2025859 8 4 8 C 1.790861 8 9.9412756e-17 9.790861 0 12 C 0 14.209139 1.790861 16 4 16 C 5.2025859 16 6.2667372 15.464977 7 14.625 L 16.09375 19.1875 C 16.040466 19.44789 16 19.723858 16 20 C 16 22.209139 17.790861 24 20 24 C 22.209139 24 24 22.209139 24 20 C 24 17.790861 22.209139 16 20 16 C 18.797414 16 17.733263 16.535023 17 17.375 L 7.90625 12.8125 C 7.9595336 12.55211 8 12.276142 8 12 C 8 11.723858 7.9595336 11.44789 7.90625 11.1875 L 17 6.625 C 17.733263 7.4649769 18.797414 8 20 8 C 22.209139 8 24 6.209139 24 4 C 24 1.790861 22.209139 1.4911913e-16 20 0 z"/>
</svg>
