<?xml version="1.0"?>
<svg xmlns="http://www.w3.org/2000/svg" viewBox="0 0 50 50">
    <path style="line-height:normal;text-indent:0;text-align:start;text-decoration-line:none;text-decoration-style:solid;text-decoration-color:#000;text-transform:none;block-progression:tb;isolation:auto;mix-blend-mode:normal" d="M 5 7 A 1.0001 1.0001 0 0 0 4 8 L 4 22 L 3 22 C 2.448 22 2 22.448 2 23 L 2 27 C 2 27.552 2.448 28 3 28 L 4 28 L 4 42 A 1.0001 1.0001 0 0 0 5 43 L 45 43 A 1.0001 1.0001 0 0 0 46 42 L 46 28 L 47 28 C 47.552 28 48 27.552 48 27 L 48 23 C 48 22.448 47.552 22 47 22 L 46 22 L 46 8 A 1.0001 1.0001 0 0 0 45 7 L 5 7 z M 6 9 L 44 9 L 44 22 L 43 22 C 42.448 22 42 22.448 42 23 L 42 27 C 42 27.552 42.448 28 43 28 L 44 28 L 44 41 L 6 41 L 6 28 L 7 28 C 7.552 28 8 27.552 8 27 L 8 23 C 8 22.448 7.552 22 7 22 L 6 22 L 6 9 z M 15 13 C 14.448 13 14 13.448 14 14 L 14 18 C 14 18.552 14.448 19 15 19 L 22 19 L 22 36 C 22 36.552 22.448 37 23 37 L 27 37 C 27.552 37 28 36.552 28 36 L 28 19 L 35 19 C 35.552 19 36 18.552 36 18 L 36 14 C 36 13.448 35.552 13 35 13 L 15 13 z" font-weight="400" font-family="sans-serif" white-space="normal" overflow="visible"/>
</svg>
