<?xml version="1.0" encoding="utf-8"?><svg version="1.1" id="Layer_1" xmlns="http://www.w3.org/2000/svg" xmlns:xlink="http://www.w3.org/1999/xlink" x="0px" y="0px" viewBox="0 0 122.04 122.88" style="enable-background:new 0 0 122.04 122.88" xml:space="preserve"><style type="text/css">.st0{fill-rule:evenodd;clip-rule:evenodd;}</style><g><path class="st0" d="M4.73,9.3v39.28h39.28l4.63,0l-3.27-3.28L33.91,33.85c0.76-0.73,1.54-1.44,2.36-2.11 c1.08-0.88,2.22-1.72,3.38-2.48l0,0c6.02-3.92,13.21-6.21,20.94-6.21l0.01,0v-0.01c10.59,0,20.18,4.3,27.12,11.24 c6.94,6.94,11.24,16.53,11.24,27.11h-0.01v0.05h0.01c0,10.59-4.3,20.19-11.24,27.12c-6.94,6.94-16.53,11.24-27.11,11.24v-0.01 l-0.08,0v0.01c-3.7,0-7.39-0.54-10.93-1.59v0c-1.95-0.58-3.87-1.33-5.71-2.22c-9.39-4.54-16.65-12.8-19.87-22.87l-0.43-1.33 L0,71.82l0.47,2.3l0.01,0.06v0.01c0.8,3.84,2,7.62,3.53,11.24v0.01c1.51,3.55,3.38,6.98,5.53,10.19 c11.03,16.43,29.78,27.25,51.05,27.25l0.01,0v-0.01c16.96,0,32.33-6.88,43.43-17.99v-0.01c11.1-11.11,17.98-26.45,17.98-43.4 l0.01,0v-0.05h-0.01c0-16.96-6.88-32.32-18-43.43l0,0C92.93,6.89,77.58,0.02,60.63,0.01V0l-0.06,0v0.01 c-8.71,0-17.01,1.82-24.51,5.1c-1.21,0.53-2.42,1.11-3.6,1.71c-5.48,2.83-10.47,6.46-14.83,10.74L8,7.95L4.73,4.67V9.3L4.73,9.3 L4.73,9.3z"/></g></svg>