<svg id="Layer_1" data-name="Layer 1" xmlns="http://www.w3.org/2000/svg" viewBox="0 0 121.7 122.88"><title>zoom-6x</title><path d="M53.62,0A53.63,53.63,0,0,1,98.5,83l23.2,25.3-16,14.62L83.32,98.26A53.62,53.62,0,1,1,53.62,0ZM64,39.58l3.19,7.71h.46l3.18-7.71h10L74.43,53.52l6.41,14.91H70.59l-3.46-8.31h-.41L63.3,68.43H53.51L59.79,53.8,53.51,39.58Zm-23.06,21V56.22H39a4.57,4.57,0,0,0-2.12.35c-.4.22-.6.77-.6,1.59v4.35h1.89a4.57,4.57,0,0,0,2.12-.35q.6-.34.6-1.59Zm9-6.47a12.54,12.54,0,0,1,.92,5.1,12.54,12.54,0,0,1-.92,5.1,6.43,6.43,0,0,1-2.73,3.07,12.22,12.22,0,0,1-3.81,1.39,27.35,27.35,0,0,1-4.77.37q-7,0-9.61-3.6T26.39,54a30.68,30.68,0,0,1,.6-6.65,11.36,11.36,0,0,1,2.17-4.61q3-3.89,11.73-3.88a36.44,36.44,0,0,1,4.64.39,30,30,0,0,1,4.27.81l-1.39,7.06a41.94,41.94,0,0,0-7.13-.64,21.13,21.13,0,0,0-5,.41v2.35h2.31a26.32,26.32,0,0,1,4.77.38A12,12,0,0,1,47.21,51a6.47,6.47,0,0,1,2.73,3.07ZM87.3,19.94a47.63,47.63,0,1,0,14,33.68,47.49,47.49,0,0,0-14-33.68Z"/></svg>