<svg id="Layer_1" data-name="Layer 1" xmlns="http://www.w3.org/2000/svg" viewBox="0 0 121.7 122.88"><title>zoom-4x</title><path d="M53.62,0A53.63,53.63,0,0,1,98.5,83l23.2,25.3-16,14.62L83.32,98.26A53.62,53.62,0,1,1,53.62,0ZM64.43,39.58l3.19,7.71h.46l3.18-7.71h10L74.86,53.52l6.42,14.91H71l-3.46-8.31h-.42l-3.41,8.31H54L60.23,53.8,54,39.58ZM40.17,68.43V63.82H26V58.05l7.11-18.47H49.4v16.3h3v7.94h-3v4.61Zm-.46-21.92L35.6,55.88h4.57V46.51ZM87.3,19.94a47.63,47.63,0,1,0,14,33.68,47.49,47.49,0,0,0-14-33.68Z"/></svg>