<svg id="Layer_1" data-name="Layer 1" xmlns="http://www.w3.org/2000/svg" viewBox="0 0 121.7 122.88"><title>zoom-2x</title><path d="M53.62,0A53.63,53.63,0,0,1,98.5,83l23.2,25.3-16,14.62L83.32,98.26A53.62,53.62,0,1,1,53.62,0ZM64,39.58l3.19,7.71h.46l3.18-7.71h10L74.43,53.52l6.41,14.91H70.59l-3.46-8.31h-.41L63.3,68.43H53.51L59.79,53.8,53.51,39.58ZM28.24,47.52,27,40.64a39.9,39.9,0,0,1,11.59-1.75c1.53,0,2.82,0,3.85.14a14,14,0,0,1,3.21.69,6.69,6.69,0,0,1,2.63,1.52q2.22,2.22,2.22,6.79c0,3-.87,5.29-2.59,6.74s-5.35,3.11-10.89,5v1.3h13v7.38H26.39V62.66a12.8,12.8,0,0,1,1-4.94,10.3,10.3,0,0,1,2.91-3.23,14.7,14.7,0,0,1,3.35-2l4-1.82c1.24-.57,2.25-1,3-1.41V46.74a33.32,33.32,0,0,0-3.83-.23,36.82,36.82,0,0,0-8.54,1ZM87.3,19.94a47.63,47.63,0,1,0,14,33.68,47.49,47.49,0,0,0-14-33.68Z"/></svg>