<?xml version="1.0" encoding="utf-8"?><svg version="1.1" id="Layer_1" xmlns="http://www.w3.org/2000/svg" xmlns:xlink="http://www.w3.org/1999/xlink" x="0px" y="0px" width="122.879px" height="119.801px" viewBox="0 0 122.879 119.801" enable-background="new 0 0 122.879 119.801" xml:space="preserve"><g><path fill-rule="evenodd" clip-rule="evenodd" d="M49.991,0h0.015v0.006c13.794,0.004,26.294,5.601,35.336,14.645 c9.026,9.031,14.618,21.515,14.628,35.303h0.006v0.034v0.04h-0.006c-0.005,5.557-0.918,10.905-2.594,15.892 c-0.281,0.837-0.576,1.641-0.877,2.409v0.007c-1.446,3.661-3.315,7.12-5.548,10.307l29.08,26.14l0.018,0.015l0.157,0.146 l0.012,0.012c1.641,1.563,2.535,3.656,2.648,5.779c0.11,2.1-0.538,4.248-1.976,5.971l-0.011,0.016l-0.176,0.204l-0.039,0.046 l-0.145,0.155l-0.011,0.011c-1.563,1.642-3.656,2.539-5.782,2.651c-2.104,0.111-4.254-0.54-5.975-1.978l-0.012-0.012l-0.203-0.175 l-0.029-0.024L78.764,90.865c-0.88,0.62-1.779,1.207-2.687,1.763c-1.234,0.756-2.51,1.467-3.816,2.117 c-6.699,3.342-14.266,5.223-22.27,5.223v0.006h-0.016v-0.006c-13.797-0.005-26.297-5.601-35.334-14.644l-0.004,0.005 C5.608,76.3,0.016,63.81,0.007,50.021H0v-0.033v-0.016h0.007c0.005-13.799,5.601-26.297,14.646-35.339 C23.684,5.607,36.169,0.015,49.958,0.006V0H49.991L49.991,0z M67.787,43.397c1.21-0.007,2.353,0.312,3.322,0.872l-0.002,0.002 c0.365,0.21,0.708,0.454,1.01,0.715c0.306,0.264,0.594,0.569,0.851,0.895h0.004c0.873,1.11,1.397,2.522,1.394,4.053 c-0.003,1.216-0.335,2.358-0.906,3.335c-0.454,0.78-1.069,1.461-1.791,1.996c-0.354,0.261-0.751,0.496-1.168,0.688v0.002 c-0.823,0.378-1.749,0.595-2.722,0.6l-35.166,0.248c-1.209,0.011-2.354-0.31-3.327-0.873l0.002-0.002 c-0.37-0.212-0.715-0.458-1.016-0.722c-0.306-0.264-0.589-0.567-0.844-0.891h-0.004c-0.873-1.112-1.397-2.522-1.393-4.053 c0.002-1.213,0.337-2.354,0.906-3.328l-0.004-0.002c0.376-0.642,0.869-1.225,1.442-1.714h0.004 c0.574-0.489,1.236-0.883,1.942-1.151c0.704-0.266,1.484-0.418,2.296-0.423L67.787,43.397L67.787,43.397z M50.006,11.212v0.006 h-0.015h-0.034v-0.006C39.274,11.219,29.59,15.56,22.581,22.566l0.002,0.002c-7.019,7.018-11.365,16.711-11.368,27.404h0.006v0.016 v0.033h-0.006c0.006,10.683,4.347,20.365,11.354,27.377l0.002-0.002c7.018,7.018,16.711,11.365,27.404,11.367v-0.007h0.016h0.033 v0.007c10.685-0.007,20.367-4.348,27.381-11.359c7.012-7.009,11.359-16.702,11.361-27.401H88.76v-0.015v-0.034h0.007 C88.76,39.273,84.419,29.591,77.407,22.58v-0.007C70.398,15.562,60.705,11.214,50.006,11.212L50.006,11.212z"/></g></svg>